<svg width="175" height="176" viewBox="0 0 175 176" fill="none" xmlns="http://www.w3.org/2000/svg">
<circle cx="87.5" cy="88" r="85.75" stroke="#676767" stroke-width="3.5"/>
<path d="M80.6672 87.0497L76.7856 66.2467C76.6907 65.7397 76.4931 65.2573 76.205 64.8294C75.9168 64.4015 75.5442 64.0371 75.11 63.7586C74.6758 63.48 74.1892 63.2932 73.6801 63.2097C73.171 63.1262 72.6503 63.1477 72.1498 63.2729L72.0765 63.2941L59.6609 66.9559H48.8575L36.4419 63.3059L36.3686 63.2847C35.8682 63.1595 35.3474 63.138 34.8384 63.2215C34.3293 63.305 33.8427 63.4918 33.4085 63.7704C32.9743 64.0489 32.6016 64.4134 32.3135 64.8413C32.0253 65.2692 31.8277 65.7515 31.7329 66.2586L27.8512 87.0497C27.6852 87.8824 27.8085 88.7468 28.2005 89.4999C28.5925 90.253 29.2299 90.8498 30.0072 91.1914C30.5051 91.4194 31.0458 91.5387 31.5934 91.5413C32.2488 91.5408 32.8921 91.3644 33.4562 91.0307V100.997C33.4562 103.505 34.4525 105.91 36.2258 107.684C37.9991 109.457 40.4043 110.453 42.9121 110.453H65.6063C68.1142 110.453 70.5193 109.457 72.2927 107.684C74.066 105.91 75.0622 103.505 75.0622 100.997V91.033C75.6256 91.3664 76.2681 91.5427 76.9227 91.5437C77.4709 91.5421 78.0125 91.4237 78.5113 91.1962C79.2895 90.8543 79.9275 90.2568 80.3196 89.5027C80.7117 88.7486 80.8344 87.8831 80.6672 87.0497ZM31.565 87.7589L35.4491 66.9559L45.3943 69.8802L31.565 87.7589ZM65.6063 106.671H56.1504V103.671L59.3796 100.444C59.7345 100.089 59.9338 99.6079 59.9338 99.106C59.9338 98.6042 59.7345 98.1229 59.3796 97.768C59.0247 97.4131 58.5434 97.2138 58.0416 97.2138C57.5397 97.2138 57.0584 97.4131 56.7036 97.768L54.2592 100.215L51.8149 97.768C51.46 97.4131 50.9787 97.2138 50.4769 97.2138C49.975 97.2138 49.4937 97.4131 49.1389 97.768C48.784 98.1229 48.5846 98.6042 48.5846 99.106C48.5846 99.6079 48.784 100.089 49.1389 100.444L52.368 103.671V106.671H42.9121C41.4074 106.671 39.9643 106.073 38.9003 105.009C37.8363 103.945 37.2386 102.502 37.2386 100.997V86.6029L49.5124 70.7383H59.0037L71.2799 86.6029V100.997C71.2799 102.502 70.6821 103.945 69.6181 105.009C68.5541 106.073 67.111 106.671 65.6063 106.671ZM76.9534 87.7589L63.1241 69.8802L73.0694 66.9559L76.9534 87.7589ZM48.5857 90.5957C48.5857 91.1568 48.4193 91.7052 48.1076 92.1717C47.7959 92.6382 47.3529 93.0018 46.8345 93.2165C46.3161 93.4312 45.7458 93.4874 45.1955 93.378C44.6452 93.2685 44.1397 92.9983 43.743 92.6016C43.3463 92.2049 43.0761 91.6994 42.9666 91.1491C42.8572 90.5988 42.9134 90.0285 43.1281 89.5101C43.3428 88.9918 43.7064 88.5487 44.1729 88.237C44.6394 87.9253 45.1879 87.7589 45.7489 87.7589C46.5013 87.7589 47.2228 88.0578 47.7548 88.5898C48.2868 89.1218 48.5857 89.8433 48.5857 90.5957ZM65.6063 90.5957C65.6063 91.1568 65.4399 91.7052 65.1282 92.1717C64.8165 92.6382 64.3735 93.0018 63.8551 93.2165C63.3368 93.4312 62.7664 93.4874 62.2161 93.378C61.6658 93.2685 61.1604 92.9983 60.7636 92.6016C60.3669 92.2049 60.0967 91.6994 59.9873 91.1491C59.8778 90.5988 59.934 90.0285 60.1487 89.5101C60.3634 88.9918 60.727 88.5487 61.1935 88.237C61.66 87.9253 62.2085 87.7589 62.7696 87.7589C63.5219 87.7589 64.2435 88.0578 64.7755 88.5898C65.3074 89.1218 65.6063 89.8433 65.6063 90.5957Z" fill="black"/>
<path d="M112.176 90.5956C112.176 91.1567 112.01 91.7051 111.698 92.1716C111.387 92.6381 110.944 93.0017 110.425 93.2164C109.907 93.4312 109.336 93.4873 108.786 93.3779C108.236 93.2684 107.73 92.9982 107.334 92.6015C106.937 92.2048 106.667 91.6993 106.557 91.149C106.448 90.5988 106.504 90.0284 106.719 89.51C106.933 88.9917 107.297 88.5486 107.764 88.2369C108.23 87.9252 108.779 87.7588 109.34 87.7588C110.092 87.7588 110.814 88.0577 111.346 88.5897C111.878 89.1217 112.176 89.8433 112.176 90.5956ZM130.143 87.7588C129.582 87.7588 129.033 87.9252 128.567 88.2369C128.1 88.5486 127.736 88.9917 127.522 89.51C127.307 90.0284 127.251 90.5988 127.36 91.149C127.47 91.6993 127.74 92.2048 128.137 92.6015C128.533 92.9982 129.039 93.2684 129.589 93.3779C130.139 93.4873 130.71 93.4312 131.228 93.2164C131.747 93.0017 132.19 92.6381 132.501 92.1716C132.813 91.7051 132.979 91.1567 132.979 90.5956C132.979 89.8433 132.681 89.1217 132.149 88.5897C131.617 88.0577 130.895 87.7588 130.143 87.7588ZM144.326 68.847V89.65C144.326 102.163 133.299 112.344 119.741 112.344C106.184 112.344 95.1558 102.163 95.1558 89.65V68.847C95.1561 68.0992 95.3781 67.3683 95.7938 66.7466C96.2094 66.1249 96.8 65.6404 97.4909 65.3542C98.1818 65.0681 98.9421 64.9932 99.6755 65.139C100.409 65.2848 101.083 65.6447 101.612 66.1734C101.645 66.2065 101.673 66.2372 101.702 66.2703L105.794 70.9746C109.978 68.3531 114.815 66.9628 119.753 66.9628C124.69 66.9628 129.528 68.3531 133.712 70.9746L137.781 66.2703C137.809 66.2372 137.837 66.2065 137.87 66.1734C138.399 65.6447 139.073 65.2848 139.807 65.139C140.54 64.9932 141.3 65.0681 141.991 65.3542C142.682 65.6404 143.273 66.1249 143.688 66.7466C144.104 67.3683 144.326 68.0992 144.326 68.847ZM140.544 68.847L135.447 74.7097C135.136 75.0704 134.699 75.3 134.225 75.3526C133.751 75.4052 133.275 75.2769 132.892 74.9934C131.738 74.1404 130.5 73.4077 129.197 72.8067V78.3029C129.197 78.8045 128.998 79.2855 128.643 79.6402C128.288 79.9949 127.807 80.1941 127.306 80.1941C126.804 80.1941 126.323 79.9949 125.969 79.6402C125.614 79.2855 125.415 78.8045 125.415 78.3029V71.4592C124.174 71.14 122.909 70.9249 121.632 70.8162V78.3029C121.632 78.8045 121.433 79.2855 121.078 79.6402C120.724 79.9949 120.243 80.1941 119.741 80.1941C119.24 80.1941 118.759 79.9949 118.404 79.6402C118.049 79.2855 117.85 78.8045 117.85 78.3029V70.8162C116.573 70.9249 115.308 71.14 114.068 71.4592V78.3029C114.068 78.8045 113.868 79.2855 113.514 79.6402C113.159 79.9949 112.678 80.1941 112.176 80.1941C111.675 80.1941 111.194 79.9949 110.839 79.6402C110.484 79.2855 110.285 78.8045 110.285 78.3029V72.8067C108.982 73.4077 107.744 74.1404 106.59 74.9934C106.208 75.2777 105.732 75.4072 105.258 75.3559C104.785 75.3047 104.348 75.0764 104.035 74.7168L98.9381 68.847V89.65C98.9381 99.4984 107.262 107.616 117.85 108.484V103.671L114.621 100.442C114.445 100.266 114.306 100.057 114.211 99.8278C114.116 99.5983 114.067 99.3523 114.067 99.1039C114.067 98.8555 114.117 98.6096 114.212 98.3802C114.307 98.1507 114.446 97.9423 114.622 97.7667C114.977 97.4122 115.458 97.2131 115.96 97.2134C116.208 97.2135 116.454 97.2625 116.683 97.3577C116.913 97.4528 117.121 97.5922 117.297 97.7679L119.741 100.212L122.185 97.7679C122.361 97.5922 122.569 97.4528 122.799 97.3577C123.028 97.2625 123.274 97.2135 123.523 97.2134C123.771 97.2132 124.017 97.2621 124.247 97.357C124.476 97.452 124.685 97.5912 124.86 97.7667C125.036 97.9423 125.175 98.1507 125.271 98.3802C125.366 98.6096 125.415 98.8555 125.415 99.1039C125.415 99.3523 125.366 99.5983 125.271 99.8278C125.176 100.057 125.037 100.266 124.862 100.442L121.632 103.671V108.484C132.221 107.612 140.544 99.5007 140.544 89.65V68.847Z" fill="black"/>
</svg>
