<svg width="175" height="176" viewBox="0 0 175 176" fill="none" xmlns="http://www.w3.org/2000/svg">
<circle cx="87.5" cy="88" r="85.75" stroke="#6D9DC5" stroke-width="5"/>
<g clip-path="url(#clip0_363_1021)">
<path d="M98.751 75.5002H69.5843C69.0318 75.5002 68.5019 75.2808 68.1112 74.8901C67.7205 74.4993 67.501 73.9694 67.501 73.4169V65.0836C67.501 64.531 67.7205 64.0011 68.1112 63.6104C68.5019 63.2197 69.0318 63.0002 69.5843 63.0002H98.751C99.3035 63.0002 99.8334 63.2197 100.224 63.6104C100.615 64.0011 100.834 64.531 100.834 65.0836V73.4169C100.834 73.9694 100.615 74.4993 100.224 74.8901C99.8334 75.2808 99.3035 75.5002 98.751 75.5002ZM71.6676 71.3336H96.6676V67.0419H71.6676V71.3336Z" fill="black"/>
<path d="M98.751 79.8335H69.5843C69.0318 79.8335 68.5019 80.053 68.1112 80.4437C67.7205 80.8344 67.501 81.3643 67.501 81.9168V90.0835C67.501 90.636 67.7205 91.1659 68.1112 91.5566C68.5019 91.9473 69.0318 92.1668 69.5843 92.1668H93.251L100.834 84.4585V81.9168C100.834 81.3643 100.615 80.8344 100.224 80.4437C99.8334 80.053 99.3035 79.8335 98.751 79.8335ZM96.6676 88.0002H71.6676V83.8335H96.6676V88.0002Z" fill="black"/>
<path d="M78.0425 116.146V116.021L78.7091 113.125H63.3341V58.8332H105.001V80.1873L109.167 76.2498V56.7498C109.167 56.1973 108.948 55.6674 108.557 55.2767C108.167 54.886 107.637 54.6665 107.084 54.6665H61.2508C60.6983 54.6665 60.1684 54.886 59.7777 55.2767C59.387 55.6674 59.1675 56.1973 59.1675 56.7498V115.083C59.1675 115.636 59.387 116.166 59.7777 116.556C60.1684 116.947 60.6983 117.167 61.2508 117.167H77.9175C77.9344 116.824 77.9761 116.482 78.0425 116.146Z" fill="black"/>
<path d="M100.835 90.4371L99.21 92.083C99.6131 91.9999 99.9826 91.7992 100.272 91.5063C100.561 91.2133 100.757 90.8413 100.835 90.4371Z" fill="black"/>
<path d="M67.501 106.625C67.501 107.177 67.7205 107.707 68.1112 108.098C68.5019 108.489 69.0318 108.708 69.5843 108.708H79.6676L80.2926 106L80.5635 104.854V104.75H71.6676V100.5H84.876L89.0426 96.3331H69.5843C69.0318 96.3331 68.5019 96.5526 68.1112 96.9433C67.7205 97.334 67.501 97.8639 67.501 98.4165V106.625Z" fill="black"/>
<path d="M124.77 85.2287L117.749 78.2078C117.437 77.8954 117.067 77.6475 116.66 77.4784C116.252 77.3092 115.815 77.2222 115.374 77.2222C114.933 77.2222 114.496 77.3092 114.088 77.4784C113.681 77.6475 113.311 77.8954 112.999 78.2078L84.4364 106.937L82.0823 116.958C81.9941 117.39 81.9921 117.836 82.0764 118.269C82.1607 118.702 82.3296 119.114 82.5735 119.482C82.8173 119.849 83.1313 120.165 83.4974 120.411C83.8636 120.658 84.2747 120.829 84.7073 120.916C84.922 120.937 85.1383 120.937 85.3531 120.916C85.6085 120.956 85.8685 120.956 86.1239 120.916L96.2281 118.687L124.77 90.0828C125.082 89.773 125.329 89.4046 125.498 88.9988C125.667 88.593 125.754 88.1578 125.754 87.7182C125.754 87.2787 125.667 86.8435 125.498 86.4377C125.329 86.0319 125.082 85.6635 124.77 85.3537V85.2287ZM94.1031 114.895L86.4781 116.583L88.3323 109.02L109.749 87.3745L115.624 93.2495L94.1031 114.895ZM117.978 90.8953L112.103 85.0203L115.416 81.7495L121.332 87.6662L117.978 90.8953Z" fill="black"/>
</g>
<defs>
<clipPath id="clip0_363_1021">
<rect width="75" height="75" fill="white" transform="translate(55 50.5)"/>
</clipPath>
</defs>
</svg>
